<svg width="30" height="30" xmlns="http://www.w3.org/2000/svg">
 <g>
  <title>background</title>
  <rect fill="none" id="canvas_background" height="32" width="32" y="-1" x="-1"/>
 </g>

 <g>
  <title>Layer 1</title>
  <path id="svg_3" d="m22.906,8.5c0,4.367 -6.281,14.312 -7.906,17.031c-1.719,-2.75 -7.906,-12.665 -7.906,-17.031s3.54,-7.907 7.906,-7.907s7.906,3.54 7.906,7.907z" fill="#888888"/>
  <path id="svg_3" d="m22.906,10c0,4.367 -6.281,14.312 -7.906,17.031c-1.719,-2.75 -7.906,-12.665 -7.906,-17.031s3.54,-7.907 7.906,-7.907s7.906,3.54 7.906,7.907z" fill="#FFFFFF"/>
  <path id="svg_1" d="m22.906,10.438c0,4.367 -6.281,14.312 -7.906,17.031c-1.719,-2.75 -7.906,-12.665 -7.906,-17.031s3.54,-7.907 7.906,-7.907s7.906,3.54 7.906,7.907z" fill="#e72a23"/>
  <circle id="svg_2" r="4.291" cy="10.677" cx="15" fill="#FFFFFF"/>
 </g>
</svg>